# xmcd CD database file
#
# Track frame offsets:
#	150
#	11247
#	29110
#	40680
#	51139
#	70227
#	84635
#	102382
#	123570
#	137835
#	147825
#	162282
#	192327
#	243997
#	257330
#	268542
#
# Disc length: 3756 seconds
#
# Revision: 0
# Processed by: cddbd v1.5PL3 Copyright (c) Steve Scherf et al.
# Submitted via: CDex 1.51
#
DISCID=e60eaa10
DTITLE=WANITA - Swingin' Rockin' Honly Tonkin'
DYEAR=2001
DGENRE=Country
TTITLE0=WANITA - Somehow If Somewhere
TTITLE1=MARK "LITTLE SHARY" SHEEDY - Clickety Clack
TTITLE2=CHUCK BERRY - Promised Land
TTITLE3=JANIS MARTIN - Drugstore Rock 'N' Roll
TTITLE4=JOHN GRILLS - The Land Of Ringer Trumby
TTITLE5=LORETTA LYN - Coal Miner's Daughter
TTITLE6=RODGERS - LOVELL - Why Should I Be Lonely
TTITLE7=WANITA - The After Shave Song (My Secret Little Thing)
TTITLE8=JAY MILLER - It Wasn't God Who Made Honly Tonk Angels
TTITLE9=ROBINSON - Let's Have A Party
TTITLE10=FELL - HENRY MADDOX - Old Black Choo Choo
TTITLE11=KRIS KRISTOFFERSON and FRED FOSTER - Me And Bobby McGee
TTITLE12=TRADITIONAL ARR R. FIELDS - Just A Closer Walk With Thee
TTITLE13=HANK WILLIAMS - Mind Your Own Business
TTITLE14=WANITA, LAWRIE MINSON and HEATHER FIELDS - Don't Need What Used To Be
TTITLE15=BRYANT - One More Year To Go
EXTD=YEAR: 2001
EXTT0=
EXTT1=
EXTT2=
EXTT3=
EXTT4=
EXTT5=
EXTT6=
EXTT7=
EXTT8=
EXTT9=
EXTT10=
EXTT11=
EXTT12=
EXTT13=
EXTT14=
EXTT15=
PLAYORDER=
